<mxfile host="app.diagrams.net" modified="2024-03-01T20:53:22.872Z" agent="Mozilla/5.0 (Windows NT 10.0; Win64; x64) AppleWebKit/537.36 (KHTML, like Gecko) Chrome/122.0.0.0 Safari/537.36" etag="o__yva0iORmRXc9PGz4h" version="23.1.6" type="device">
  <diagram name="Page-1" id="2a216829-ef6e-dabb-86c1-c78162f3ba2b">
    <mxGraphModel dx="1434" dy="772" grid="1" gridSize="10" guides="1" tooltips="1" connect="1" arrows="1" fold="1" page="1" pageScale="1" pageWidth="850" pageHeight="1100" background="none" math="0" shadow="0">
      <root>
        <mxCell id="0" />
        <mxCell id="1" parent="0" />
        <mxCell id="ZpPQKn9r_8TpebrVd8-8-6" value="Usuário" style="swimlane;startSize=20;horizontal=0;html=1;whiteSpace=wrap;" parent="1" vertex="1">
          <mxGeometry x="10" y="10" width="830" height="150" as="geometry">
            <mxRectangle x="10" y="10" width="40" height="80" as="alternateBounds" />
          </mxGeometry>
        </mxCell>
        <mxCell id="ZpPQKn9r_8TpebrVd8-8-7" value="" style="edgeStyle=elbowEdgeStyle;fontSize=12;html=1;endArrow=blockThin;endFill=1;rounded=0;entryX=0;entryY=0.5;entryDx=0;entryDy=0;entryPerimeter=0;" parent="ZpPQKn9r_8TpebrVd8-8-6" target="ZpPQKn9r_8TpebrVd8-8-5" edge="1">
          <mxGeometry width="160" relative="1" as="geometry">
            <mxPoint x="70" y="75" as="sourcePoint" />
            <mxPoint x="140" y="75" as="targetPoint" />
          </mxGeometry>
        </mxCell>
        <mxCell id="ZpPQKn9r_8TpebrVd8-8-3" value="" style="points=[[0.145,0.145,0],[0.5,0,0],[0.855,0.145,0],[1,0.5,0],[0.855,0.855,0],[0.5,1,0],[0.145,0.855,0],[0,0.5,0]];shape=mxgraph.bpmn.event;html=1;verticalLabelPosition=bottom;labelBackgroundColor=#ffffff;verticalAlign=top;align=center;perimeter=ellipsePerimeter;outlineConnect=0;aspect=fixed;outline=standard;symbol=general;fillColor=#d5e8d4;strokeColor=#82b366;" parent="ZpPQKn9r_8TpebrVd8-8-6" vertex="1">
          <mxGeometry x="30" y="55" width="40" height="40" as="geometry" />
        </mxCell>
        <mxCell id="ZpPQKn9r_8TpebrVd8-8-5" value="Inserir Informações" style="points=[[0.25,0,0],[0.5,0,0],[0.75,0,0],[1,0.25,0],[1,0.5,0],[1,0.75,0],[0.75,1,0],[0.5,1,0],[0.25,1,0],[0,0.75,0],[0,0.5,0],[0,0.25,0]];shape=mxgraph.bpmn.task;whiteSpace=wrap;rectStyle=rounded;size=10;html=1;container=1;expand=0;collapsible=0;taskMarker=abstract;" parent="ZpPQKn9r_8TpebrVd8-8-6" vertex="1">
          <mxGeometry x="310" y="50" width="140" height="50" as="geometry" />
        </mxCell>
        <mxCell id="ZpPQKn9r_8TpebrVd8-8-4" value="" style="points=[[0.145,0.145,0],[0.5,0,0],[0.855,0.145,0],[1,0.5,0],[0.855,0.855,0],[0.5,1,0],[0.145,0.855,0],[0,0.5,0]];shape=mxgraph.bpmn.event;html=1;verticalLabelPosition=bottom;labelBackgroundColor=#ffffff;verticalAlign=top;align=center;perimeter=ellipsePerimeter;outlineConnect=0;aspect=fixed;outline=standard;symbol=general;fillColor=#f8cecc;strokeColor=#b85450;" parent="ZpPQKn9r_8TpebrVd8-8-6" vertex="1">
          <mxGeometry x="730" y="55" width="40" height="40" as="geometry" />
        </mxCell>
        <mxCell id="1TNBx_tsy-_WQuN2GjOq-2" value="" style="edgeStyle=elbowEdgeStyle;fontSize=12;html=1;endArrow=blockThin;endFill=1;rounded=0;entryX=0;entryY=0.5;entryDx=0;entryDy=0;entryPerimeter=0;exitX=1;exitY=0.5;exitDx=0;exitDy=0;exitPerimeter=0;" edge="1" parent="ZpPQKn9r_8TpebrVd8-8-6" source="ZpPQKn9r_8TpebrVd8-8-5" target="ZpPQKn9r_8TpebrVd8-8-4">
          <mxGeometry width="160" relative="1" as="geometry">
            <mxPoint x="490" y="80" as="sourcePoint" />
            <mxPoint x="390" y="74.5" as="targetPoint" />
          </mxGeometry>
        </mxCell>
        <mxCell id="1TNBx_tsy-_WQuN2GjOq-3" value="Servidor" style="swimlane;startSize=20;horizontal=0;html=1;whiteSpace=wrap;" vertex="1" parent="1">
          <mxGeometry x="10" y="170" width="830" height="150" as="geometry">
            <mxRectangle x="10" y="10" width="40" height="80" as="alternateBounds" />
          </mxGeometry>
        </mxCell>
        <mxCell id="1TNBx_tsy-_WQuN2GjOq-4" value="" style="edgeStyle=elbowEdgeStyle;fontSize=12;html=1;endArrow=blockThin;endFill=1;rounded=0;entryX=0;entryY=0.5;entryDx=0;entryDy=0;entryPerimeter=0;" edge="1" parent="1TNBx_tsy-_WQuN2GjOq-3" target="1TNBx_tsy-_WQuN2GjOq-6">
          <mxGeometry width="160" relative="1" as="geometry">
            <mxPoint x="70" y="75" as="sourcePoint" />
            <mxPoint x="140" y="75" as="targetPoint" />
          </mxGeometry>
        </mxCell>
        <mxCell id="1TNBx_tsy-_WQuN2GjOq-5" value="" style="points=[[0.145,0.145,0],[0.5,0,0],[0.855,0.145,0],[1,0.5,0],[0.855,0.855,0],[0.5,1,0],[0.145,0.855,0],[0,0.5,0]];shape=mxgraph.bpmn.event;html=1;verticalLabelPosition=bottom;labelBackgroundColor=#ffffff;verticalAlign=top;align=center;perimeter=ellipsePerimeter;outlineConnect=0;aspect=fixed;outline=standard;symbol=general;fillColor=#d5e8d4;strokeColor=#82b366;" vertex="1" parent="1TNBx_tsy-_WQuN2GjOq-3">
          <mxGeometry x="30" y="55" width="40" height="40" as="geometry" />
        </mxCell>
        <mxCell id="1TNBx_tsy-_WQuN2GjOq-6" value="Cadastrar Informações" style="points=[[0.25,0,0],[0.5,0,0],[0.75,0,0],[1,0.25,0],[1,0.5,0],[1,0.75,0],[0.75,1,0],[0.5,1,0],[0.25,1,0],[0,0.75,0],[0,0.5,0],[0,0.25,0]];shape=mxgraph.bpmn.task;whiteSpace=wrap;rectStyle=rounded;size=10;html=1;container=1;expand=0;collapsible=0;taskMarker=abstract;" vertex="1" parent="1TNBx_tsy-_WQuN2GjOq-3">
          <mxGeometry x="310" y="50" width="140" height="50" as="geometry" />
        </mxCell>
        <mxCell id="1TNBx_tsy-_WQuN2GjOq-7" value="" style="points=[[0.145,0.145,0],[0.5,0,0],[0.855,0.145,0],[1,0.5,0],[0.855,0.855,0],[0.5,1,0],[0.145,0.855,0],[0,0.5,0]];shape=mxgraph.bpmn.event;html=1;verticalLabelPosition=bottom;labelBackgroundColor=#ffffff;verticalAlign=top;align=center;perimeter=ellipsePerimeter;outlineConnect=0;aspect=fixed;outline=standard;symbol=general;fillColor=#f8cecc;strokeColor=#b85450;" vertex="1" parent="1TNBx_tsy-_WQuN2GjOq-3">
          <mxGeometry x="730" y="55" width="40" height="40" as="geometry" />
        </mxCell>
        <mxCell id="1TNBx_tsy-_WQuN2GjOq-9" style="edgeStyle=orthogonalEdgeStyle;rounded=0;orthogonalLoop=1;jettySize=auto;html=1;entryX=0;entryY=0.5;entryDx=0;entryDy=0;entryPerimeter=0;" edge="1" parent="1TNBx_tsy-_WQuN2GjOq-3" source="1TNBx_tsy-_WQuN2GjOq-6" target="1TNBx_tsy-_WQuN2GjOq-7">
          <mxGeometry relative="1" as="geometry" />
        </mxCell>
        <mxCell id="1TNBx_tsy-_WQuN2GjOq-11" style="edgeStyle=orthogonalEdgeStyle;rounded=0;orthogonalLoop=1;jettySize=auto;html=1;entryX=0.5;entryY=0;entryDx=0;entryDy=0;entryPerimeter=0;" edge="1" parent="1" source="ZpPQKn9r_8TpebrVd8-8-5" target="1TNBx_tsy-_WQuN2GjOq-6">
          <mxGeometry relative="1" as="geometry" />
        </mxCell>
      </root>
    </mxGraphModel>
  </diagram>
</mxfile>
